<mxfile host="app.diagrams.net" modified="2021-02-02T06:55:35.251Z" agent="5.0 (Macintosh; Intel Mac OS X 11_0_1) AppleWebKit/537.36 (KHTML, like Gecko) Chrome/89.0.4389.9 Safari/537.36" etag="n4a0SpNRrn1_uKEk7ljv" version="14.2.9" type="github">
  <diagram id="nRAjSiK8WFjrmP_ywzNY" name="Page-1">
    <mxGraphModel dx="861" dy="478" grid="1" gridSize="10" guides="1" tooltips="1" connect="1" arrows="1" fold="1" page="1" pageScale="1" pageWidth="850" pageHeight="1100" math="0" shadow="0">
      <root>
        <mxCell id="0" />
        <mxCell id="1" parent="0" />
        <mxCell id="EFe__VmadSYUJM0yqOKW-1" value="" style="rounded=1;whiteSpace=wrap;html=1;" vertex="1" parent="1">
          <mxGeometry x="310" y="230" width="120" height="60" as="geometry" />
        </mxCell>
        <mxCell id="EFe__VmadSYUJM0yqOKW-2" value="" style="rounded=1;whiteSpace=wrap;html=1;" vertex="1" parent="1">
          <mxGeometry x="115" y="350" width="120" height="60" as="geometry" />
        </mxCell>
        <mxCell id="EFe__VmadSYUJM0yqOKW-3" value="main()" style="text;html=1;strokeColor=none;fillColor=none;align=center;verticalAlign=middle;whiteSpace=wrap;rounded=0;" vertex="1" parent="1">
          <mxGeometry x="340" y="250" width="60" height="20" as="geometry" />
        </mxCell>
        <mxCell id="EFe__VmadSYUJM0yqOKW-4" value="" style="rounded=0;whiteSpace=wrap;html=1;" vertex="1" parent="1">
          <mxGeometry x="40" y="20" width="350" height="190" as="geometry" />
        </mxCell>
        <mxCell id="EFe__VmadSYUJM0yqOKW-5" value="Problem 1: Compute grade&lt;br&gt;&lt;div&gt;&lt;br&gt;&lt;/div&gt;The first problem is to create a Structure Chart for a program to convert a number grade (ex: 88%) into a&lt;br&gt;letter grade (ex: B+). &lt;br&gt;&lt;br&gt;Consider the following example (input is Underlined):&lt;br&gt;What is your grade in percent: 88&lt;br&gt;Your grade is B+" style="text;html=1;strokeColor=none;fillColor=none;align=left;verticalAlign=middle;whiteSpace=wrap;rounded=0;" vertex="1" parent="1">
          <mxGeometry x="50" y="60" width="320" height="140" as="geometry" />
        </mxCell>
        <mxCell id="EFe__VmadSYUJM0yqOKW-6" value="" style="rounded=0;whiteSpace=wrap;html=1;" vertex="1" parent="1">
          <mxGeometry x="430" y="30" width="370" height="170" as="geometry" />
        </mxCell>
        <mxCell id="EFe__VmadSYUJM0yqOKW-8" value="Psuedocode (Notes)&lt;br&gt;&lt;br&gt;Input&amp;nbsp; &amp;nbsp; &amp;nbsp; &amp;nbsp; - prompt user for float grade cin &amp;lt;&amp;lt; user input&lt;br&gt;Compute - computeLetterGrade() if numgrade &amp;gt; 96 return A+&lt;br&gt;Output&amp;nbsp; &amp;nbsp; &amp;nbsp;- display converted letter grade" style="text;html=1;strokeColor=none;fillColor=none;align=left;verticalAlign=middle;whiteSpace=wrap;rounded=0;" vertex="1" parent="1">
          <mxGeometry x="445" y="45" width="340" height="140" as="geometry" />
        </mxCell>
        <mxCell id="EFe__VmadSYUJM0yqOKW-9" value="getNumGrade" style="text;html=1;strokeColor=none;fillColor=none;align=center;verticalAlign=middle;whiteSpace=wrap;rounded=0;" vertex="1" parent="1">
          <mxGeometry x="155" y="370" width="40" height="20" as="geometry" />
        </mxCell>
        <mxCell id="EFe__VmadSYUJM0yqOKW-17" value="" style="endArrow=classic;html=1;exitX=0.454;exitY=-0.05;exitDx=0;exitDy=0;exitPerimeter=0;entryX=0;entryY=0.5;entryDx=0;entryDy=0;" edge="1" parent="1" source="EFe__VmadSYUJM0yqOKW-2" target="EFe__VmadSYUJM0yqOKW-1">
          <mxGeometry relative="1" as="geometry">
            <mxPoint x="190" y="270" as="sourcePoint" />
            <mxPoint x="290" y="270" as="targetPoint" />
          </mxGeometry>
        </mxCell>
        <mxCell id="EFe__VmadSYUJM0yqOKW-18" value="float numGrade" style="edgeLabel;resizable=0;html=1;align=center;verticalAlign=middle;" connectable="0" vertex="1" parent="EFe__VmadSYUJM0yqOKW-17">
          <mxGeometry relative="1" as="geometry" />
        </mxCell>
        <mxCell id="EFe__VmadSYUJM0yqOKW-19" value="" style="rounded=1;whiteSpace=wrap;html=1;" vertex="1" parent="1">
          <mxGeometry x="310" y="350" width="120" height="60" as="geometry" />
        </mxCell>
        <mxCell id="EFe__VmadSYUJM0yqOKW-20" value="computeLetterGrade" style="text;html=1;strokeColor=none;fillColor=none;align=center;verticalAlign=middle;whiteSpace=wrap;rounded=0;" vertex="1" parent="1">
          <mxGeometry x="350" y="370" width="40" height="20" as="geometry" />
        </mxCell>
        <mxCell id="EFe__VmadSYUJM0yqOKW-21" value="" style="endArrow=classic;html=1;exitX=1;exitY=0.5;exitDx=0;exitDy=0;entryX=0;entryY=0.5;entryDx=0;entryDy=0;" edge="1" parent="1" source="EFe__VmadSYUJM0yqOKW-19" target="EFe__VmadSYUJM0yqOKW-23">
          <mxGeometry relative="1" as="geometry">
            <mxPoint x="360" y="320" as="sourcePoint" />
            <mxPoint x="370" y="300" as="targetPoint" />
          </mxGeometry>
        </mxCell>
        <mxCell id="EFe__VmadSYUJM0yqOKW-22" value="char letterGrade[256]" style="edgeLabel;resizable=0;html=1;align=center;verticalAlign=middle;" connectable="0" vertex="1" parent="EFe__VmadSYUJM0yqOKW-21">
          <mxGeometry relative="1" as="geometry" />
        </mxCell>
        <mxCell id="EFe__VmadSYUJM0yqOKW-23" value="" style="rounded=1;whiteSpace=wrap;html=1;" vertex="1" parent="1">
          <mxGeometry x="610" y="350" width="120" height="60" as="geometry" />
        </mxCell>
        <mxCell id="EFe__VmadSYUJM0yqOKW-24" value="Display" style="text;html=1;strokeColor=none;fillColor=none;align=center;verticalAlign=middle;whiteSpace=wrap;rounded=0;" vertex="1" parent="1">
          <mxGeometry x="650" y="370" width="40" height="20" as="geometry" />
        </mxCell>
        <mxCell id="EFe__VmadSYUJM0yqOKW-25" value="" style="endArrow=classic;html=1;exitX=0.5;exitY=1;exitDx=0;exitDy=0;entryX=0.5;entryY=0;entryDx=0;entryDy=0;" edge="1" parent="1" source="EFe__VmadSYUJM0yqOKW-1" target="EFe__VmadSYUJM0yqOKW-19">
          <mxGeometry width="50" height="50" relative="1" as="geometry">
            <mxPoint x="450" y="190" as="sourcePoint" />
            <mxPoint x="500" y="140" as="targetPoint" />
          </mxGeometry>
        </mxCell>
        <mxCell id="EFe__VmadSYUJM0yqOKW-26" value="" style="rounded=1;whiteSpace=wrap;html=1;" vertex="1" parent="1">
          <mxGeometry x="310" y="770" width="120" height="60" as="geometry" />
        </mxCell>
        <mxCell id="EFe__VmadSYUJM0yqOKW-27" value="" style="rounded=1;whiteSpace=wrap;html=1;" vertex="1" parent="1">
          <mxGeometry x="115" y="890" width="120" height="60" as="geometry" />
        </mxCell>
        <mxCell id="EFe__VmadSYUJM0yqOKW-28" value="main()" style="text;html=1;strokeColor=none;fillColor=none;align=center;verticalAlign=middle;whiteSpace=wrap;rounded=0;" vertex="1" parent="1">
          <mxGeometry x="340" y="790" width="60" height="20" as="geometry" />
        </mxCell>
        <mxCell id="EFe__VmadSYUJM0yqOKW-29" value="" style="rounded=0;whiteSpace=wrap;html=1;" vertex="1" parent="1">
          <mxGeometry x="40" y="1040" width="360" height="290" as="geometry" />
        </mxCell>
        <mxCell id="EFe__VmadSYUJM0yqOKW-30" value="&lt;div&gt;&lt;div&gt;Problem 3: Currency&lt;/div&gt;&lt;div&gt;&lt;br&gt;&lt;/div&gt;&lt;div&gt;The final problem is designed to help an international traveler convert his money to various currencies.&lt;/div&gt;&lt;div&gt;&lt;br&gt;&lt;/div&gt;&lt;div&gt;After prompting him for the amount to be converted,&amp;nbsp;&lt;/div&gt;&lt;div&gt;the program will display how many&amp;nbsp;&lt;/div&gt;&lt;div&gt;British pounds,&lt;/div&gt;&lt;div&gt;Euros, or&amp;nbsp;&lt;/div&gt;&lt;div&gt;Japanese Yen he will have:&lt;/div&gt;&lt;div&gt;&lt;br&gt;&lt;/div&gt;&lt;div&gt;How much money do you want to convert? $100.00&lt;/div&gt;&lt;div&gt;&amp;nbsp;British Pounds: £61.50&lt;/div&gt;&lt;div&gt;&amp;nbsp;Euros: €70.09&lt;/div&gt;&lt;div&gt;&amp;nbsp;Japanese Yen: ¥8079.06&lt;/div&gt;&lt;/div&gt;&lt;div&gt;&lt;br&gt;&lt;/div&gt;&lt;div&gt;&lt;br&gt;&lt;/div&gt;&lt;div&gt;&lt;br&gt;&lt;/div&gt;" style="text;html=1;strokeColor=none;fillColor=none;align=left;verticalAlign=middle;whiteSpace=wrap;rounded=0;" vertex="1" parent="1">
          <mxGeometry x="55" y="1060" width="320" height="230" as="geometry" />
        </mxCell>
        <mxCell id="EFe__VmadSYUJM0yqOKW-31" value="" style="rounded=0;whiteSpace=wrap;html=1;" vertex="1" parent="1">
          <mxGeometry x="430" y="570" width="370" height="170" as="geometry" />
        </mxCell>
        <mxCell id="EFe__VmadSYUJM0yqOKW-32" value="Input&amp;nbsp; &amp;nbsp; &amp;nbsp; &amp;nbsp; - prompt user for double allowance cin &amp;lt;&amp;lt; user input;&lt;br&gt;Compute - computeTithing()&amp;nbsp; return allowance * 0.10;&lt;br&gt;Compute - allowance minus tithing return double spendable&lt;br&gt;Output&amp;nbsp; &amp;nbsp; &amp;nbsp;- Display cout &amp;lt;&amp;lt; spendable" style="text;html=1;strokeColor=none;fillColor=none;align=left;verticalAlign=middle;whiteSpace=wrap;rounded=0;" vertex="1" parent="1">
          <mxGeometry x="445" y="585" width="340" height="140" as="geometry" />
        </mxCell>
        <mxCell id="EFe__VmadSYUJM0yqOKW-33" value="getAllowance" style="text;html=1;strokeColor=none;fillColor=none;align=center;verticalAlign=middle;whiteSpace=wrap;rounded=0;" vertex="1" parent="1">
          <mxGeometry x="155" y="910" width="40" height="20" as="geometry" />
        </mxCell>
        <mxCell id="EFe__VmadSYUJM0yqOKW-34" value="" style="endArrow=classic;html=1;exitX=0.454;exitY=-0.05;exitDx=0;exitDy=0;exitPerimeter=0;entryX=0;entryY=0.5;entryDx=0;entryDy=0;" edge="1" parent="1" source="EFe__VmadSYUJM0yqOKW-27" target="EFe__VmadSYUJM0yqOKW-26">
          <mxGeometry relative="1" as="geometry">
            <mxPoint x="190" y="810" as="sourcePoint" />
            <mxPoint x="290" y="810" as="targetPoint" />
          </mxGeometry>
        </mxCell>
        <mxCell id="EFe__VmadSYUJM0yqOKW-35" value="double allowance" style="edgeLabel;resizable=0;html=1;align=center;verticalAlign=middle;" connectable="0" vertex="1" parent="EFe__VmadSYUJM0yqOKW-34">
          <mxGeometry relative="1" as="geometry" />
        </mxCell>
        <mxCell id="EFe__VmadSYUJM0yqOKW-36" value="" style="rounded=1;whiteSpace=wrap;html=1;" vertex="1" parent="1">
          <mxGeometry x="310" y="890" width="120" height="60" as="geometry" />
        </mxCell>
        <mxCell id="EFe__VmadSYUJM0yqOKW-37" value="computeTithing" style="text;html=1;strokeColor=none;fillColor=none;align=center;verticalAlign=middle;whiteSpace=wrap;rounded=0;" vertex="1" parent="1">
          <mxGeometry x="350" y="910" width="40" height="20" as="geometry" />
        </mxCell>
        <mxCell id="EFe__VmadSYUJM0yqOKW-38" value="" style="endArrow=classic;html=1;exitX=1;exitY=0.5;exitDx=0;exitDy=0;entryX=0;entryY=0.5;entryDx=0;entryDy=0;" edge="1" parent="1" source="EFe__VmadSYUJM0yqOKW-36" target="EFe__VmadSYUJM0yqOKW-40">
          <mxGeometry relative="1" as="geometry">
            <mxPoint x="360" y="860" as="sourcePoint" />
            <mxPoint x="370" y="840" as="targetPoint" />
          </mxGeometry>
        </mxCell>
        <mxCell id="EFe__VmadSYUJM0yqOKW-39" value="double spendable" style="edgeLabel;resizable=0;html=1;align=center;verticalAlign=middle;" connectable="0" vertex="1" parent="EFe__VmadSYUJM0yqOKW-38">
          <mxGeometry relative="1" as="geometry" />
        </mxCell>
        <mxCell id="EFe__VmadSYUJM0yqOKW-40" value="" style="rounded=1;whiteSpace=wrap;html=1;" vertex="1" parent="1">
          <mxGeometry x="610" y="890" width="120" height="60" as="geometry" />
        </mxCell>
        <mxCell id="EFe__VmadSYUJM0yqOKW-41" value="Display" style="text;html=1;strokeColor=none;fillColor=none;align=center;verticalAlign=middle;whiteSpace=wrap;rounded=0;" vertex="1" parent="1">
          <mxGeometry x="650" y="910" width="40" height="20" as="geometry" />
        </mxCell>
        <mxCell id="EFe__VmadSYUJM0yqOKW-42" value="" style="endArrow=classic;html=1;exitX=0.5;exitY=1;exitDx=0;exitDy=0;entryX=0.5;entryY=0;entryDx=0;entryDy=0;" edge="1" parent="1" source="EFe__VmadSYUJM0yqOKW-26" target="EFe__VmadSYUJM0yqOKW-36">
          <mxGeometry width="50" height="50" relative="1" as="geometry">
            <mxPoint x="450" y="730" as="sourcePoint" />
            <mxPoint x="500" y="680" as="targetPoint" />
          </mxGeometry>
        </mxCell>
        <mxCell id="EFe__VmadSYUJM0yqOKW-43" value="" style="rounded=1;whiteSpace=wrap;html=1;" vertex="1" parent="1">
          <mxGeometry x="310" y="1360" width="120" height="60" as="geometry" />
        </mxCell>
        <mxCell id="EFe__VmadSYUJM0yqOKW-44" value="" style="rounded=1;whiteSpace=wrap;html=1;" vertex="1" parent="1">
          <mxGeometry x="100" y="1480" width="160" height="60" as="geometry" />
        </mxCell>
        <mxCell id="EFe__VmadSYUJM0yqOKW-45" value="main()" style="text;html=1;strokeColor=none;fillColor=none;align=center;verticalAlign=middle;whiteSpace=wrap;rounded=0;" vertex="1" parent="1">
          <mxGeometry x="340" y="1380" width="60" height="20" as="geometry" />
        </mxCell>
        <mxCell id="EFe__VmadSYUJM0yqOKW-46" value="" style="rounded=0;whiteSpace=wrap;html=1;" vertex="1" parent="1">
          <mxGeometry x="40" y="560" width="350" height="190" as="geometry" />
        </mxCell>
        <mxCell id="EFe__VmadSYUJM0yqOKW-47" value="&lt;div&gt;Problem 2: Compute tithing&lt;/div&gt;&lt;div&gt;&lt;br&gt;&lt;/div&gt;&lt;div&gt;The second problem is designed to help a child set aside part of his allowance for tithing.&amp;nbsp;&lt;/div&gt;&lt;div&gt;&lt;br&gt;&lt;/div&gt;&lt;div&gt;This program&amp;nbsp;&lt;span&gt;will&amp;nbsp;&lt;/span&gt;&lt;/div&gt;&lt;div&gt;&lt;span&gt;prompt the user for his allowance,&amp;nbsp;&lt;/span&gt;&lt;/div&gt;&lt;div&gt;&lt;span&gt;figure out how much is left after tithing is taken out,&amp;nbsp;&lt;/span&gt;&lt;/div&gt;&lt;div&gt;&lt;span&gt;and display&amp;nbsp;&lt;/span&gt;&lt;span&gt;the results.&lt;/span&gt;&lt;/div&gt;&lt;div&gt;&lt;br&gt;&lt;/div&gt;&lt;div&gt;What is your allowance? $10.50&lt;/div&gt;&lt;div&gt;You get to spend: $9.45&lt;/div&gt;&lt;div&gt;&lt;br&gt;&lt;/div&gt;&lt;div&gt;&lt;br&gt;&lt;/div&gt;&lt;div&gt;&lt;br&gt;&lt;/div&gt;" style="text;html=1;strokeColor=none;fillColor=none;align=left;verticalAlign=middle;whiteSpace=wrap;rounded=0;" vertex="1" parent="1">
          <mxGeometry x="50" y="600" width="320" height="150" as="geometry" />
        </mxCell>
        <mxCell id="EFe__VmadSYUJM0yqOKW-48" value="" style="rounded=0;whiteSpace=wrap;html=1;" vertex="1" parent="1">
          <mxGeometry x="430" y="1070" width="370" height="170" as="geometry" />
        </mxCell>
        <mxCell id="EFe__VmadSYUJM0yqOKW-49" value="Input&amp;nbsp; &amp;nbsp; &amp;nbsp; &amp;nbsp; - prompt user for double myMoney cin &amp;lt;&amp;lt; user input;&lt;br&gt;Compute - convertMoney()&amp;nbsp; return double pounds, euros, yen;&lt;br&gt;Output&amp;nbsp; &amp;nbsp; &amp;nbsp;- Display() cout &amp;lt;&amp;lt;&amp;nbsp; three conversions" style="text;html=1;strokeColor=none;fillColor=none;align=left;verticalAlign=middle;whiteSpace=wrap;rounded=0;" vertex="1" parent="1">
          <mxGeometry x="445" y="1085" width="340" height="140" as="geometry" />
        </mxCell>
        <mxCell id="EFe__VmadSYUJM0yqOKW-50" value="getAmountToConvert()" style="text;html=1;strokeColor=none;fillColor=none;align=center;verticalAlign=middle;whiteSpace=wrap;rounded=0;" vertex="1" parent="1">
          <mxGeometry x="160" y="1500" width="40" height="20" as="geometry" />
        </mxCell>
        <mxCell id="EFe__VmadSYUJM0yqOKW-51" value="" style="endArrow=classic;html=1;exitX=0.454;exitY=-0.05;exitDx=0;exitDy=0;exitPerimeter=0;entryX=0;entryY=0.5;entryDx=0;entryDy=0;" edge="1" parent="1" source="EFe__VmadSYUJM0yqOKW-44" target="EFe__VmadSYUJM0yqOKW-43">
          <mxGeometry relative="1" as="geometry">
            <mxPoint x="190" y="1400" as="sourcePoint" />
            <mxPoint x="290" y="1400" as="targetPoint" />
          </mxGeometry>
        </mxCell>
        <mxCell id="EFe__VmadSYUJM0yqOKW-52" value="double myMoney" style="edgeLabel;resizable=0;html=1;align=center;verticalAlign=middle;" connectable="0" vertex="1" parent="EFe__VmadSYUJM0yqOKW-51">
          <mxGeometry relative="1" as="geometry" />
        </mxCell>
        <mxCell id="EFe__VmadSYUJM0yqOKW-53" value="" style="rounded=1;whiteSpace=wrap;html=1;" vertex="1" parent="1">
          <mxGeometry x="310" y="1480" width="120" height="60" as="geometry" />
        </mxCell>
        <mxCell id="EFe__VmadSYUJM0yqOKW-54" value="convertMoney()" style="text;html=1;strokeColor=none;fillColor=none;align=center;verticalAlign=middle;whiteSpace=wrap;rounded=0;" vertex="1" parent="1">
          <mxGeometry x="350" y="1500" width="40" height="20" as="geometry" />
        </mxCell>
        <mxCell id="EFe__VmadSYUJM0yqOKW-55" value="" style="endArrow=classic;html=1;exitX=1;exitY=0.5;exitDx=0;exitDy=0;entryX=0;entryY=0.5;entryDx=0;entryDy=0;" edge="1" parent="1" source="EFe__VmadSYUJM0yqOKW-53" target="EFe__VmadSYUJM0yqOKW-57">
          <mxGeometry relative="1" as="geometry">
            <mxPoint x="360" y="1450" as="sourcePoint" />
            <mxPoint x="370" y="1430" as="targetPoint" />
          </mxGeometry>
        </mxCell>
        <mxCell id="EFe__VmadSYUJM0yqOKW-56" value="double pounds&lt;br&gt;double euros&lt;br&gt;double yen" style="edgeLabel;resizable=0;html=1;align=center;verticalAlign=middle;" connectable="0" vertex="1" parent="EFe__VmadSYUJM0yqOKW-55">
          <mxGeometry relative="1" as="geometry" />
        </mxCell>
        <mxCell id="EFe__VmadSYUJM0yqOKW-57" value="" style="rounded=1;whiteSpace=wrap;html=1;" vertex="1" parent="1">
          <mxGeometry x="610" y="1480" width="120" height="60" as="geometry" />
        </mxCell>
        <mxCell id="EFe__VmadSYUJM0yqOKW-58" value="Display()" style="text;html=1;strokeColor=none;fillColor=none;align=center;verticalAlign=middle;whiteSpace=wrap;rounded=0;" vertex="1" parent="1">
          <mxGeometry x="650" y="1500" width="40" height="20" as="geometry" />
        </mxCell>
        <mxCell id="EFe__VmadSYUJM0yqOKW-59" value="" style="endArrow=classic;html=1;exitX=0.5;exitY=1;exitDx=0;exitDy=0;entryX=0.5;entryY=0;entryDx=0;entryDy=0;" edge="1" parent="1" source="EFe__VmadSYUJM0yqOKW-43" target="EFe__VmadSYUJM0yqOKW-53">
          <mxGeometry width="50" height="50" relative="1" as="geometry">
            <mxPoint x="450" y="1320" as="sourcePoint" />
            <mxPoint x="500" y="1270" as="targetPoint" />
          </mxGeometry>
        </mxCell>
      </root>
    </mxGraphModel>
  </diagram>
</mxfile>
